# Blender 4.5.3 LTS
# www.blender.org
mtllib cornell_box.mtl
o area_light.001
v -0.670579 5.643145 -2.548101
v -0.670579 5.642307 -3.598101
v 0.629421 5.642307 -3.598101
v 0.629421 5.643145 -2.548101
vn -0.0000 -1.0000 0.0008
s 1
usemtl Light.001
f 2//1 4//1 1//1
f 2//1 3//1 4//1
o back_wall.001
v -2.736579 0.161124 -5.865730
v 2.759421 0.161124 -5.865730
v 2.759421 5.649123 -5.870100
v -2.800579 5.649123 -5.870100
vn -0.0000 0.0008 1.0000
s 1
usemtl Khaki.001
f 5//2 7//2 8//2
f 5//2 6//2 7//2
o ceiling.001
v -2.800579 5.653575 -0.278102
v -2.800579 5.649123 -5.870101
v 2.759421 5.649123 -5.870101
v 2.759421 5.653575 -0.278102
vn -0.0000 -1.0000 0.0008
s 1
usemtl Khaki.001
f 10//3 12//3 9//3
f 10//3 11//3 12//3
o floor.001
v -2.768579 0.165578 -0.273731
v 2.759421 0.165578 -0.273731
v 2.759421 0.161124 -5.865730
v -2.736579 0.161124 -5.865730
vn -0.0000 1.0000 -0.0008
s 1
usemtl Khaki.001
f 14//4 16//4 13//4
f 14//4 15//4 16//4
o left_wall.001
v -2.768579 0.165578 -0.273731
v -2.736579 0.161124 -5.865730
v -2.800579 5.649123 -5.870101
v -2.800579 5.653575 -0.278102
vn 1.0000 0.0087 0.0028
vn 1.0000 0.0088 0.0029
vn 1.0000 0.0058 -0.0000
vn 0.9999 0.0117 0.0057
s 1
usemtl BloodyRed.001
f 17//5 19//6 20//7
f 17//5 18//8 19//6
o right_wall.001
v 2.759421 0.161124 -5.865730
v 2.759421 0.165578 -0.273731
v 2.759421 5.653575 -0.278102
v 2.759421 5.649123 -5.870101
vn -1.0000 -0.0000 -0.0000
s 1
usemtl DarkGreen.001
f 22//9 24//9 21//9
f 22//9 23//9 24//9
o short_box.001
v 1.459420 1.815059 -0.925045
v 1.939420 1.813785 -2.525044
v 0.359421 1.813411 -2.995044
v -0.140579 1.814669 -1.415044
v -0.140579 0.164669 -1.413731
v -0.140579 1.814669 -1.415044
v 0.359421 1.813411 -2.995044
v 0.359421 0.163411 -2.993730
v 1.459420 0.165061 -0.923731
v 1.459420 1.815059 -0.925045
v -0.140579 1.814669 -1.415044
v -0.140579 0.164669 -1.413731
v 1.939420 0.163786 -2.523730
v 1.939420 1.813785 -2.525044
v 1.459420 1.815059 -0.925045
v 1.459420 0.165061 -0.923731
v 0.359421 0.163411 -2.993730
v 0.359421 1.813411 -2.995044
v 1.939420 1.813785 -2.525044
v 1.939420 0.163786 -2.523730
vn -0.0000 1.0000 -0.0008
vn -0.9534 -0.0002 -0.3017
vn -0.2928 0.0008 0.9562
vn 0.9578 0.0002 0.2873
vn 0.2851 -0.0008 -0.9585
s 1
usemtl Khaki.001
f 25//10 27//10 28//10
f 30//11 32//11 29//11
f 34//12 36//12 33//12
f 38//13 40//13 37//13
f 42//14 44//14 41//14
f 25//10 26//10 27//10
f 30//11 31//11 32//11
f 34//12 35//12 36//12
f 38//13 39//13 40//13
f 42//14 43//14 44//14
o tall_box.001
v -1.470580 3.463609 -2.746359
v 0.109421 3.463219 -3.236359
v -0.380580 3.461945 -4.836358
v -1.960580 3.462343 -4.336358
v -1.470580 0.163610 -2.743730
v -1.470580 3.463609 -2.746359
v -1.960580 3.462343 -4.336358
v -1.960580 0.162344 -4.333730
v -1.960580 0.162344 -4.333730
v -1.960580 3.462343 -4.336358
v -0.380580 3.461945 -4.836358
v -0.380580 0.161946 -4.833730
v -0.380580 0.161946 -4.833730
v -0.380580 3.461945 -4.836358
v 0.109421 3.463219 -3.236359
v 0.109421 0.163220 -3.233730
v 0.109421 0.163220 -3.233730
v 0.109421 3.463219 -3.236359
v -1.470580 3.463609 -2.746359
v -1.470580 0.163610 -2.743730
vn -0.0000 1.0000 -0.0008
vn -0.9556 0.0002 0.2945
vn -0.3017 -0.0008 -0.9534
vn 0.9562 -0.0002 -0.2928
vn 0.2962 0.0008 0.9551
s 1
usemtl Khaki.001
f 46//15 48//15 45//15
f 49//16 51//16 52//16
f 54//17 56//17 53//17
f 58//18 60//18 57//18
f 62//19 64//19 61//19
f 46//15 47//15 48//15
f 49//16 50//16 51//16
f 54//17 55//17 56//17
f 58//18 59//18 60//18
f 62//19 63//19 64//19
