# Blender 4.3.0
# www.blender.org
mtllib sphere.mtl
o Sphere
v 0.000000 0.831470 -0.555570
v 0.000000 0.555570 -0.831470
v 0.000000 0.195090 -0.980785
v 0.000000 0.000000 -1.000000
v 0.000000 -0.195090 -0.980785
v 0.000000 -0.555570 -0.831470
v 0.038060 0.980785 -0.191342
v 0.074658 0.923880 -0.375330
v 0.108386 0.831470 -0.544895
v 0.137950 0.707107 -0.693520
v 0.162212 0.555570 -0.815493
v 0.180240 0.382683 -0.906127
v 0.191342 0.195090 -0.961940
v 0.195090 0.000000 -0.980785
v 0.191342 -0.195090 -0.961940
v 0.180240 -0.382683 -0.906127
v 0.162212 -0.555570 -0.815493
v 0.137950 -0.707107 -0.693520
v 0.108386 -0.831470 -0.544895
v 0.074658 -0.923880 -0.375330
v 0.038060 -0.980785 -0.191342
v 0.074658 0.980785 -0.180240
v 0.146447 0.923880 -0.353553
v 0.212608 0.831470 -0.513280
v 0.270598 0.707107 -0.653281
v 0.318190 0.555570 -0.768178
v 0.353553 0.382683 -0.853553
v 0.375330 0.195090 -0.906127
v 0.382683 0.000000 -0.923879
v 0.375330 -0.195090 -0.906127
v 0.353553 -0.382683 -0.853553
v 0.318190 -0.555570 -0.768178
v 0.270598 -0.707107 -0.653281
v 0.212608 -0.831470 -0.513280
v 0.146447 -0.923880 -0.353553
v 0.074658 -0.980785 -0.180240
v 0.108386 0.980785 -0.162212
v 0.212608 0.923880 -0.318190
v 0.308658 0.831470 -0.461940
v 0.392847 0.707107 -0.587938
v 0.461940 0.555570 -0.691342
v 0.513280 0.382683 -0.768178
v 0.544895 0.195090 -0.815493
v 0.555570 0.000000 -0.831469
v 0.544895 -0.195090 -0.815493
v 0.513280 -0.382683 -0.768178
v 0.461940 -0.555570 -0.691342
v 0.392847 -0.707107 -0.587938
v 0.308658 -0.831470 -0.461940
v 0.212608 -0.923880 -0.318190
v 0.108386 -0.980785 -0.162212
v 0.137950 0.980785 -0.137950
v 0.270598 0.923880 -0.270598
v 0.392847 0.831470 -0.392847
v 0.500000 0.707107 -0.500000
v 0.587938 0.555570 -0.587938
v 0.653281 0.382683 -0.653281
v 0.693520 0.195090 -0.693520
v 0.707107 0.000000 -0.707107
v 0.693520 -0.195090 -0.693520
v 0.653281 -0.382683 -0.653281
v 0.587938 -0.555570 -0.587938
v 0.500000 -0.707107 -0.500000
v 0.392847 -0.831470 -0.392847
v 0.270598 -0.923880 -0.270598
v 0.137950 -0.980785 -0.137950
v 0.162212 0.980785 -0.108386
v 0.318190 0.923880 -0.212608
v 0.461940 0.831470 -0.308658
v 0.587938 0.707107 -0.392847
v 0.691342 0.555570 -0.461940
v 0.768178 0.382683 -0.513280
v 0.815493 0.195090 -0.544895
v 0.831470 0.000000 -0.555570
v 0.815493 -0.195090 -0.544895
v 0.768178 -0.382683 -0.513280
v 0.691342 -0.555570 -0.461940
v 0.587938 -0.707107 -0.392847
v 0.461940 -0.831470 -0.308658
v 0.318190 -0.923880 -0.212608
v 0.162212 -0.980785 -0.108386
v 0.000000 1.000000 0.000000
v 0.180240 0.980785 -0.074658
v 0.353553 0.923880 -0.146447
v 0.513280 0.831470 -0.212607
v 0.653281 0.707107 -0.270598
v 0.768178 0.555570 -0.318190
v 0.853553 0.382683 -0.353553
v 0.906127 0.195090 -0.375330
v 0.923879 0.000000 -0.382683
v 0.906127 -0.195090 -0.375330
v 0.853553 -0.382683 -0.353553
v 0.768178 -0.555570 -0.318190
v 0.653281 -0.707107 -0.270598
v 0.513280 -0.831470 -0.212607
v 0.353553 -0.923880 -0.146447
v 0.180240 -0.980785 -0.074658
v 0.191342 0.980785 -0.038060
v 0.375330 0.923880 -0.074658
v 0.544895 0.831470 -0.108386
v 0.693520 0.707107 -0.137950
v 0.815493 0.555570 -0.162212
v 0.906127 0.382683 -0.180240
v 0.961940 0.195090 -0.191342
v 0.980785 0.000000 -0.195090
v 0.961940 -0.195090 -0.191342
v 0.906127 -0.382683 -0.180240
v 0.815493 -0.555570 -0.162212
v 0.693520 -0.707107 -0.137950
v 0.544895 -0.831470 -0.108386
v 0.375330 -0.923880 -0.074658
v 0.191342 -0.980785 -0.038060
v 0.195090 0.980785 0.000000
v 0.382683 0.923880 0.000000
v 0.555570 0.831470 0.000000
v 0.707107 0.707107 -0.000000
v 0.831469 0.555570 0.000000
v 0.923879 0.382683 -0.000000
v 0.980785 0.195090 0.000000
v 1.000000 0.000000 0.000000
v 0.980785 -0.195090 0.000000
v 0.923879 -0.382683 -0.000000
v 0.831469 -0.555570 0.000000
v 0.707107 -0.707107 -0.000000
v 0.555570 -0.831470 0.000000
v 0.382683 -0.923880 0.000000
v 0.195090 -0.980785 0.000000
v 0.191342 0.980785 0.038060
v 0.375330 0.923880 0.074658
v 0.544895 0.831470 0.108386
v 0.693520 0.707107 0.137950
v 0.815493 0.555570 0.162212
v 0.906127 0.382683 0.180240
v 0.961940 0.195090 0.191342
v 0.980785 0.000000 0.195090
v 0.961940 -0.195090 0.191342
v 0.906127 -0.382683 0.180240
v 0.815493 -0.555570 0.162212
v 0.693520 -0.707107 0.137950
v 0.544895 -0.831470 0.108386
v 0.375330 -0.923880 0.074658
v 0.191342 -0.980785 0.038060
v 0.180240 0.980785 0.074658
v 0.353553 0.923880 0.146447
v 0.513280 0.831470 0.212608
v 0.653281 0.707107 0.270598
v 0.768178 0.555570 0.318190
v 0.853553 0.382683 0.353553
v 0.906127 0.195090 0.375330
v 0.923879 0.000000 0.382683
v 0.906127 -0.195090 0.375330
v 0.853553 -0.382683 0.353553
v 0.768178 -0.555570 0.318190
v 0.653281 -0.707107 0.270598
v 0.513280 -0.831470 0.212608
v 0.353553 -0.923880 0.146447
v 0.180240 -0.980785 0.074658
v 0.162212 0.980785 0.108386
v 0.318190 0.923880 0.212608
v 0.461940 0.831470 0.308658
v 0.587938 0.707107 0.392847
v 0.691341 0.555570 0.461940
v 0.768178 0.382683 0.513280
v 0.815493 0.195090 0.544895
v 0.831469 0.000000 0.555570
v 0.815493 -0.195090 0.544895
v 0.768178 -0.382683 0.513280
v 0.691341 -0.555570 0.461940
v 0.587938 -0.707107 0.392847
v 0.461940 -0.831470 0.308658
v 0.318190 -0.923880 0.212608
v 0.162212 -0.980785 0.108386
v 0.137950 0.980785 0.137950
v 0.270598 0.923880 0.270598
v 0.392847 0.831470 0.392847
v 0.500000 0.707107 0.500000
v 0.587938 0.555570 0.587938
v 0.653281 0.382683 0.653281
v 0.693520 0.195090 0.693520
v 0.707106 0.000000 0.707107
v 0.693520 -0.195090 0.693520
v 0.653281 -0.382683 0.653281
v 0.587938 -0.555570 0.587938
v 0.500000 -0.707107 0.500000
v 0.392847 -0.831470 0.392847
v 0.270598 -0.923880 0.270598
v 0.137950 -0.980785 0.137950
v 0.108386 0.980785 0.162212
v 0.212607 0.923880 0.318190
v 0.308658 0.831470 0.461940
v 0.392847 0.707107 0.587938
v 0.461940 0.555570 0.691342
v 0.513280 0.382683 0.768178
v 0.544895 0.195090 0.815493
v 0.555570 0.000000 0.831469
v 0.544895 -0.195090 0.815493
v 0.513280 -0.382683 0.768178
v 0.461940 -0.555570 0.691342
v 0.392847 -0.707107 0.587938
v 0.308658 -0.831470 0.461940
v 0.212607 -0.923880 0.318190
v 0.108386 -0.980785 0.162212
v 0.074658 0.980785 0.180240
v 0.146447 0.923880 0.353553
v 0.212607 0.831470 0.513280
v 0.270598 0.707107 0.653281
v 0.318189 0.555570 0.768178
v 0.353553 0.382683 0.853553
v 0.375330 0.195090 0.906127
v 0.382683 0.000000 0.923879
v 0.375330 -0.195090 0.906127
v 0.353553 -0.382683 0.853553
v 0.318189 -0.555570 0.768178
v 0.270598 -0.707107 0.653281
v 0.212607 -0.831470 0.513280
v 0.146447 -0.923880 0.353553
v 0.074658 -0.980785 0.180240
v 0.038060 0.980785 0.191342
v 0.074658 0.923880 0.375330
v 0.108386 0.831470 0.544895
v 0.137950 0.707107 0.693520
v 0.162212 0.555570 0.815493
v 0.180240 0.382683 0.906127
v 0.191342 0.195090 0.961939
v 0.195090 0.000000 0.980785
v 0.191342 -0.195090 0.961939
v 0.180240 -0.382683 0.906127
v 0.162212 -0.555570 0.815493
v 0.137950 -0.707107 0.693520
v 0.108386 -0.831470 0.544895
v 0.074658 -0.923880 0.375330
v 0.038060 -0.980785 0.191342
v -0.000000 0.980785 0.195090
v -0.000000 0.923880 0.382683
v -0.000000 0.831470 0.555570
v -0.000000 0.707107 0.707107
v -0.000000 0.555570 0.831469
v 0.000000 0.382683 0.923879
v -0.000000 0.195090 0.980785
v -0.000000 0.000000 0.999999
v -0.000000 -0.195090 0.980785
v 0.000000 -0.382683 0.923879
v -0.000000 -0.555570 0.831469
v -0.000000 -0.707107 0.707107
v -0.000000 -0.831470 0.555570
v -0.000000 -0.923880 0.382683
v -0.000000 -0.980785 0.195090
v -0.038060 0.980785 0.191342
v -0.074658 0.923880 0.375330
v -0.108386 0.831470 0.544895
v -0.137950 0.707107 0.693520
v -0.162212 0.555570 0.815493
v -0.180240 0.382683 0.906127
v -0.191342 0.195090 0.961939
v -0.195091 0.000000 0.980785
v -0.191342 -0.195090 0.961939
v -0.180240 -0.382683 0.906127
v -0.162212 -0.555570 0.815493
v -0.137950 -0.707107 0.693520
v -0.108386 -0.831470 0.544895
v -0.074658 -0.923880 0.375330
v -0.038060 -0.980785 0.191342
v -0.074658 0.980785 0.180240
v -0.146447 0.923880 0.353553
v -0.212608 0.831470 0.513280
v -0.270598 0.707107 0.653281
v -0.318190 0.555570 0.768177
v -0.353553 0.382683 0.853553
v -0.375330 0.195090 0.906127
v -0.382683 0.000000 0.923879
v -0.375330 -0.195090 0.906127
v -0.353553 -0.382683 0.853553
v -0.318190 -0.555570 0.768177
v -0.270598 -0.707107 0.653281
v -0.212608 -0.831470 0.513280
v -0.146447 -0.923880 0.353553
v -0.074658 -0.980785 0.180240
v -0.108386 0.980785 0.162212
v -0.212608 0.923880 0.318190
v -0.308658 0.831470 0.461939
v -0.392847 0.707107 0.587938
v -0.461940 0.555570 0.691341
v -0.513280 0.382683 0.768178
v -0.544895 0.195090 0.815493
v -0.555570 0.000000 0.831469
v -0.544895 -0.195090 0.815493
v -0.513280 -0.382683 0.768178
v -0.461940 -0.555570 0.691341
v -0.392847 -0.707107 0.587938
v -0.308658 -0.831470 0.461939
v -0.212608 -0.923880 0.318190
v -0.108386 -0.980785 0.162212
v -0.137950 0.980785 0.137950
v -0.270598 0.923880 0.270598
v -0.392847 0.831470 0.392847
v -0.500000 0.707107 0.500000
v -0.587938 0.555570 0.587937
v -0.653281 0.382683 0.653281
v -0.693520 0.195090 0.693520
v -0.707106 0.000000 0.707106
v -0.693520 -0.195090 0.693520
v -0.653281 -0.382683 0.653281
v -0.587938 -0.555570 0.587937
v -0.500000 -0.707107 0.500000
v -0.392847 -0.831470 0.392847
v -0.270598 -0.923880 0.270598
v -0.137950 -0.980785 0.137950
v 0.000000 -1.000000 0.000000
v -0.162212 0.980785 0.108386
v -0.318190 0.923880 0.212607
v -0.461940 0.831470 0.308658
v -0.587938 0.707107 0.392847
v -0.691341 0.555570 0.461939
v -0.768177 0.382683 0.513280
v -0.815493 0.195090 0.544895
v -0.831469 0.000000 0.555569
v -0.815493 -0.195090 0.544895
v -0.768177 -0.382683 0.513280
v -0.691341 -0.555570 0.461939
v -0.587938 -0.707107 0.392847
v -0.461940 -0.831470 0.308658
v -0.318190 -0.923880 0.212607
v -0.162212 -0.980785 0.108386
v -0.180240 0.980785 0.074658
v -0.353553 0.923880 0.146447
v -0.513280 0.831470 0.212607
v -0.653281 0.707107 0.270598
v -0.768177 0.555570 0.318189
v -0.853553 0.382683 0.353553
v -0.906127 0.195090 0.375330
v -0.923879 0.000000 0.382683
v -0.906127 -0.195090 0.375330
v -0.853553 -0.382683 0.353553
v -0.768177 -0.555570 0.318189
v -0.653281 -0.707107 0.270598
v -0.513280 -0.831470 0.212607
v -0.353553 -0.923880 0.146447
v -0.180240 -0.980785 0.074658
v -0.191342 0.980785 0.038060
v -0.375330 0.923880 0.074658
v -0.544895 0.831470 0.108386
v -0.693520 0.707107 0.137950
v -0.815493 0.555570 0.162211
v -0.906127 0.382683 0.180240
v -0.961939 0.195090 0.191341
v -0.980784 0.000000 0.195090
v -0.961939 -0.195090 0.191341
v -0.906127 -0.382683 0.180240
v -0.815493 -0.555570 0.162211
v -0.693520 -0.707107 0.137950
v -0.544895 -0.831470 0.108386
v -0.375330 -0.923880 0.074658
v -0.191342 -0.980785 0.038060
v -0.195090 0.980785 -0.000000
v -0.382683 0.923880 -0.000000
v -0.555570 0.831470 -0.000000
v -0.707107 0.707107 -0.000000
v -0.831469 0.555570 -0.000000
v -0.923879 0.382683 -0.000000
v -0.980785 0.195090 -0.000000
v -0.999999 0.000000 -0.000000
v -0.980785 -0.195090 -0.000000
v -0.923879 -0.382683 -0.000000
v -0.831469 -0.555570 -0.000000
v -0.707107 -0.707107 -0.000000
v -0.555570 -0.831470 -0.000000
v -0.382683 -0.923880 -0.000000
v -0.195090 -0.980785 -0.000000
v -0.191342 0.980785 -0.038060
v -0.375330 0.923880 -0.074658
v -0.544895 0.831470 -0.108386
v -0.693520 0.707107 -0.137950
v -0.815493 0.555570 -0.162212
v -0.906127 0.382683 -0.180240
v -0.961939 0.195090 -0.191342
v -0.980784 0.000000 -0.195091
v -0.961939 -0.195090 -0.191342
v -0.906127 -0.382683 -0.180240
v -0.815493 -0.555570 -0.162212
v -0.693520 -0.707107 -0.137950
v -0.544895 -0.831470 -0.108386
v -0.375330 -0.923880 -0.074658
v -0.191342 -0.980785 -0.038060
v -0.180240 0.980785 -0.074658
v -0.353553 0.923880 -0.146447
v -0.513279 0.831470 -0.212607
v -0.653281 0.707107 -0.270598
v -0.768177 0.555570 -0.318190
v -0.853553 0.382683 -0.353553
v -0.906127 0.195090 -0.375330
v -0.923878 0.000000 -0.382683
v -0.906127 -0.195090 -0.375330
v -0.853553 -0.382683 -0.353553
v -0.768177 -0.555570 -0.318190
v -0.653281 -0.707107 -0.270598
v -0.513279 -0.831470 -0.212607
v -0.353553 -0.923880 -0.146447
v -0.180240 -0.980785 -0.074658
v -0.162212 0.980785 -0.108386
v -0.318189 0.923880 -0.212607
v -0.461939 0.831470 -0.308658
v -0.587938 0.707107 -0.392847
v -0.691341 0.555570 -0.461940
v -0.768177 0.382683 -0.513280
v -0.815493 0.195090 -0.544895
v -0.831468 0.000000 -0.555570
v -0.815493 -0.195090 -0.544895
v -0.768177 -0.382683 -0.513280
v -0.691341 -0.555570 -0.461940
v -0.587938 -0.707107 -0.392847
v -0.461939 -0.831470 -0.308658
v -0.318189 -0.923880 -0.212607
v -0.162212 -0.980785 -0.108386
v -0.137950 0.980785 -0.137950
v -0.270598 0.923880 -0.270598
v -0.392847 0.831470 -0.392847
v -0.500000 0.707107 -0.500000
v -0.587937 0.555570 -0.587938
v -0.653281 0.382683 -0.653281
v -0.693519 0.195090 -0.693520
v -0.707106 0.000000 -0.707106
v -0.693519 -0.195090 -0.693520
v -0.653281 -0.382683 -0.653281
v -0.587937 -0.555570 -0.587938
v -0.500000 -0.707107 -0.500000
v -0.392847 -0.831470 -0.392847
v -0.270598 -0.923880 -0.270598
v -0.137950 -0.980785 -0.137950
v -0.108386 0.980785 -0.162212
v -0.212607 0.923880 -0.318190
v -0.308658 0.831470 -0.461939
v -0.392847 0.707107 -0.587938
v -0.461939 0.555570 -0.691341
v -0.513280 0.382683 -0.768177
v -0.544895 0.195090 -0.815493
v -0.555569 0.000000 -0.831469
v -0.544895 -0.195090 -0.815493
v -0.513280 -0.382683 -0.768177
v -0.461939 -0.555570 -0.691341
v -0.392847 -0.707107 -0.587938
v -0.308658 -0.831470 -0.461939
v -0.212607 -0.923880 -0.318190
v -0.108386 -0.980785 -0.162212
v -0.074658 0.980785 -0.180240
v -0.146446 0.923880 -0.353553
v -0.212607 0.831470 -0.513279
v -0.270598 0.707107 -0.653281
v -0.318189 0.555570 -0.768177
v -0.353553 0.382683 -0.853553
v -0.375330 0.195090 -0.906127
v -0.382683 0.000000 -0.923879
v -0.375330 -0.195090 -0.906127
v -0.353553 -0.382683 -0.853553
v -0.318189 -0.555570 -0.768177
v -0.270598 -0.707107 -0.653281
v -0.212607 -0.831470 -0.513279
v -0.146446 -0.923880 -0.353553
v -0.074658 -0.980785 -0.180240
v -0.038060 0.980785 -0.191342
v -0.074658 0.923880 -0.375330
v -0.108386 0.831470 -0.544895
v -0.137950 0.707107 -0.693520
v -0.162211 0.555570 -0.815493
v -0.180240 0.382683 -0.906127
v -0.191341 0.195090 -0.961939
v -0.195090 0.000000 -0.980784
v -0.191341 -0.195090 -0.961939
v -0.180240 -0.382683 -0.906127
v -0.162211 -0.555570 -0.815493
v -0.137950 -0.707107 -0.693520
v -0.108386 -0.831470 -0.544895
v -0.074658 -0.923880 -0.375330
v -0.038060 -0.980785 -0.191342
v 0.000000 0.980785 -0.195090
v 0.000000 0.923880 -0.382683
v 0.000000 0.707107 -0.707107
v 0.000000 0.382683 -0.923879
v 0.000000 -0.382683 -0.923879
v 0.000000 -0.707107 -0.707107
v 0.000000 -0.831470 -0.555570
v 0.000000 -0.923880 -0.382683
v 0.000000 -0.980785 -0.195090
vn -0.0000 0.8286 -0.5598
vn -0.0000 0.5528 -0.8333
vn -0.0000 0.1939 -0.9810
vn -0.0000 -0.0000 -1.0000
vn -0.0000 -0.1939 -0.9810
vn -0.0000 -0.5528 -0.8333
vn 0.0392 0.9796 -0.1971
vn 0.0757 0.9217 -0.3804
vn 0.1092 0.8286 -0.5490
vn 0.1385 0.7041 -0.6965
vn 0.1626 0.5528 -0.8173
vn 0.1804 0.3805 -0.9070
vn 0.1914 0.1939 -0.9622
vn 0.1951 -0.0000 -0.9808
vn 0.1914 -0.1939 -0.9622
vn 0.1804 -0.3805 -0.9070
vn 0.1626 -0.5528 -0.8173
vn 0.1385 -0.7041 -0.6965
vn 0.1092 -0.8286 -0.5490
vn 0.0757 -0.9217 -0.3804
vn 0.0392 -0.9796 -0.1971
vn 0.0769 0.9796 -0.1857
vn 0.1484 0.9217 -0.3584
vn 0.2142 0.8286 -0.5172
vn 0.2718 0.7041 -0.6561
vn 0.3189 0.5528 -0.7699
vn 0.3539 0.3805 -0.8544
vn 0.3754 0.1939 -0.9063
vn 0.3827 -0.0000 -0.9239
vn 0.3754 -0.1939 -0.9063
vn 0.3539 -0.3805 -0.8544
vn 0.3189 -0.5528 -0.7699
vn 0.2718 -0.7041 -0.6561
vn 0.2142 -0.8286 -0.5172
vn 0.1484 -0.9217 -0.3584
vn 0.0769 -0.9796 -0.1857
vn 0.1117 0.9796 -0.1671
vn 0.2155 0.9217 -0.3225
vn 0.3110 0.8286 -0.4654
vn 0.3945 0.7041 -0.5905
vn 0.4630 0.5528 -0.6929
vn 0.5138 0.3805 -0.7689
vn 0.5450 0.1939 -0.8157
vn 0.5556 -0.0000 -0.8315
vn 0.5450 -0.1939 -0.8157
vn 0.5138 -0.3805 -0.7689
vn 0.4630 -0.5528 -0.6929
vn 0.3945 -0.7041 -0.5905
vn 0.3110 -0.8286 -0.4654
vn 0.2155 -0.9217 -0.3225
vn 0.1117 -0.9796 -0.1671
vn 0.1421 0.9796 -0.1421
vn 0.2743 0.9217 -0.2743
vn 0.3958 0.8286 -0.3958
vn 0.5021 0.7041 -0.5021
vn 0.5893 0.5528 -0.5893
vn 0.6539 0.3805 -0.6539
vn 0.6937 0.1939 -0.6937
vn 0.7071 -0.0000 -0.7071
vn 0.6937 -0.1939 -0.6937
vn 0.6539 -0.3805 -0.6539
vn 0.5893 -0.5528 -0.5893
vn 0.5021 -0.7041 -0.5021
vn 0.3958 -0.8286 -0.3958
vn 0.2743 -0.9217 -0.2743
vn 0.1421 -0.9796 -0.1421
vn 0.1671 0.9796 -0.1117
vn 0.3225 0.9217 -0.2155
vn 0.4654 0.8286 -0.3110
vn 0.5905 0.7041 -0.3945
vn 0.6929 0.5528 -0.4630
vn 0.7689 0.3805 -0.5138
vn 0.8157 0.1939 -0.5450
vn 0.8315 -0.0000 -0.5556
vn 0.8157 -0.1939 -0.5450
vn 0.7689 -0.3805 -0.5138
vn 0.6929 -0.5528 -0.4630
vn 0.5905 -0.7041 -0.3945
vn 0.4654 -0.8286 -0.3110
vn 0.3225 -0.9217 -0.2155
vn 0.1671 -0.9796 -0.1117
vn -0.0000 1.0000 -0.0000
vn 0.1857 0.9796 -0.0769
vn 0.3584 0.9217 -0.1484
vn 0.5172 0.8286 -0.2142
vn 0.6561 0.7041 -0.2718
vn 0.7699 0.5528 -0.3189
vn 0.8544 0.3805 -0.3539
vn 0.9063 0.1939 -0.3754
vn 0.9239 -0.0000 -0.3827
vn 0.9063 -0.1939 -0.3754
vn 0.8544 -0.3805 -0.3539
vn 0.7699 -0.5528 -0.3189
vn 0.6561 -0.7041 -0.2718
vn 0.5172 -0.8286 -0.2142
vn 0.3584 -0.9217 -0.1484
vn 0.1857 -0.9796 -0.0769
vn 0.1971 0.9796 -0.0392
vn 0.3804 0.9217 -0.0757
vn 0.5490 0.8286 -0.1092
vn 0.6965 0.7041 -0.1385
vn 0.8173 0.5528 -0.1626
vn 0.9070 0.3805 -0.1804
vn 0.9622 0.1939 -0.1914
vn 0.9808 -0.0000 -0.1951
vn 0.9622 -0.1939 -0.1914
vn 0.9070 -0.3805 -0.1804
vn 0.8173 -0.5528 -0.1626
vn 0.6965 -0.7041 -0.1385
vn 0.5490 -0.8286 -0.1092
vn 0.3804 -0.9217 -0.0757
vn 0.1971 -0.9796 -0.0392
vn 0.2010 0.9796 -0.0000
vn 0.3879 0.9217 -0.0000
vn 0.5598 0.8286 -0.0000
vn 0.7101 0.7041 -0.0000
vn 0.8333 0.5528 -0.0000
vn 0.9248 0.3805 -0.0000
vn 0.9810 0.1939 -0.0000
vn 1.0000 -0.0000 -0.0000
vn 0.9810 -0.1939 -0.0000
vn 0.9248 -0.3805 -0.0000
vn 0.8333 -0.5528 -0.0000
vn 0.7101 -0.7041 -0.0000
vn 0.5598 -0.8286 -0.0000
vn 0.3879 -0.9217 -0.0000
vn 0.2010 -0.9796 -0.0000
vn 0.1971 0.9796 0.0392
vn 0.3804 0.9217 0.0757
vn 0.5490 0.8286 0.1092
vn 0.6965 0.7041 0.1385
vn 0.8173 0.5528 0.1626
vn 0.9070 0.3805 0.1804
vn 0.9622 0.1939 0.1914
vn 0.9808 -0.0000 0.1951
vn 0.9622 -0.1939 0.1914
vn 0.9070 -0.3805 0.1804
vn 0.8173 -0.5528 0.1626
vn 0.6965 -0.7041 0.1385
vn 0.5490 -0.8286 0.1092
vn 0.3804 -0.9217 0.0757
vn 0.1971 -0.9796 0.0392
vn 0.1857 0.9796 0.0769
vn 0.3584 0.9217 0.1484
vn 0.5172 0.8286 0.2142
vn 0.6561 0.7041 0.2718
vn 0.7699 0.5528 0.3189
vn 0.8544 0.3805 0.3539
vn 0.9063 0.1939 0.3754
vn 0.9239 -0.0000 0.3827
vn 0.9063 -0.1939 0.3754
vn 0.8544 -0.3805 0.3539
vn 0.7699 -0.5528 0.3189
vn 0.6561 -0.7041 0.2718
vn 0.5172 -0.8286 0.2142
vn 0.3584 -0.9217 0.1484
vn 0.1857 -0.9796 0.0769
vn 0.1671 0.9796 0.1117
vn 0.3225 0.9217 0.2155
vn 0.4654 0.8286 0.3110
vn 0.5905 0.7041 0.3945
vn 0.6929 0.5528 0.4630
vn 0.7689 0.3805 0.5138
vn 0.8157 0.1939 0.5450
vn 0.8315 -0.0000 0.5556
vn 0.8157 -0.1939 0.5450
vn 0.7689 -0.3805 0.5138
vn 0.6929 -0.5528 0.4630
vn 0.5905 -0.7041 0.3945
vn 0.4654 -0.8286 0.3110
vn 0.3225 -0.9217 0.2155
vn 0.1671 -0.9796 0.1117
vn 0.1421 0.9796 0.1421
vn 0.2743 0.9217 0.2743
vn 0.3958 0.8286 0.3958
vn 0.5021 0.7041 0.5021
vn 0.5893 0.5528 0.5893
vn 0.6539 0.3805 0.6539
vn 0.6937 0.1939 0.6937
vn 0.7071 -0.0000 0.7071
vn 0.6937 -0.1939 0.6937
vn 0.6539 -0.3805 0.6539
vn 0.5893 -0.5528 0.5893
vn 0.5021 -0.7041 0.5021
vn 0.3958 -0.8286 0.3958
vn 0.2743 -0.9217 0.2743
vn 0.1421 -0.9796 0.1421
vn 0.1117 0.9796 0.1671
vn 0.2155 0.9217 0.3225
vn 0.3110 0.8286 0.4654
vn 0.3945 0.7041 0.5905
vn 0.4630 0.5528 0.6929
vn 0.5138 0.3805 0.7689
vn 0.5450 0.1939 0.8157
vn 0.5556 -0.0000 0.8315
vn 0.5450 -0.1939 0.8157
vn 0.5138 -0.3805 0.7689
vn 0.4630 -0.5528 0.6929
vn 0.3945 -0.7041 0.5905
vn 0.3110 -0.8286 0.4654
vn 0.2155 -0.9217 0.3225
vn 0.1117 -0.9796 0.1671
vn 0.0769 0.9796 0.1857
vn 0.1484 0.9217 0.3584
vn 0.2142 0.8286 0.5172
vn 0.2718 0.7041 0.6561
vn 0.3189 0.5528 0.7699
vn 0.3539 0.3805 0.8544
vn 0.3754 0.1939 0.9063
vn 0.3827 -0.0000 0.9239
vn 0.3754 -0.1939 0.9063
vn 0.3539 -0.3805 0.8544
vn 0.3189 -0.5528 0.7699
vn 0.2718 -0.7041 0.6561
vn 0.2142 -0.8286 0.5172
vn 0.1484 -0.9217 0.3584
vn 0.0769 -0.9796 0.1857
vn 0.0392 0.9796 0.1971
vn 0.0757 0.9217 0.3804
vn 0.1092 0.8286 0.5490
vn 0.1385 0.7041 0.6965
vn 0.1626 0.5528 0.8173
vn 0.1804 0.3805 0.9070
vn 0.1914 0.1939 0.9622
vn 0.1951 -0.0000 0.9808
vn 0.1914 -0.1939 0.9622
vn 0.1804 -0.3805 0.9070
vn 0.1626 -0.5528 0.8173
vn 0.1385 -0.7041 0.6965
vn 0.1092 -0.8286 0.5490
vn 0.0757 -0.9217 0.3804
vn 0.0392 -0.9796 0.1971
vn -0.0000 0.9796 0.2010
vn -0.0000 0.9217 0.3879
vn -0.0000 0.8286 0.5598
vn -0.0000 0.7041 0.7101
vn -0.0000 0.5528 0.8333
vn -0.0000 0.3805 0.9248
vn -0.0000 0.1939 0.9810
vn -0.0000 -0.0000 1.0000
vn -0.0000 -0.1939 0.9810
vn -0.0000 -0.3805 0.9248
vn -0.0000 -0.5528 0.8333
vn -0.0000 -0.7041 0.7101
vn -0.0000 -0.8286 0.5598
vn -0.0000 -0.9217 0.3879
vn -0.0000 -0.9796 0.2010
vn -0.0392 0.9796 0.1971
vn -0.0757 0.9217 0.3804
vn -0.1092 0.8286 0.5490
vn -0.1385 0.7041 0.6965
vn -0.1626 0.5528 0.8173
vn -0.1804 0.3805 0.9070
vn -0.1914 0.1939 0.9622
vn -0.1951 -0.0000 0.9808
vn -0.1914 -0.1939 0.9622
vn -0.1804 -0.3805 0.9070
vn -0.1626 -0.5528 0.8173
vn -0.1385 -0.7041 0.6965
vn -0.1092 -0.8286 0.5490
vn -0.0757 -0.9217 0.3804
vn -0.0392 -0.9796 0.1971
vn -0.0769 0.9796 0.1857
vn -0.1484 0.9217 0.3584
vn -0.2142 0.8286 0.5172
vn -0.2718 0.7041 0.6561
vn -0.3189 0.5528 0.7699
vn -0.3539 0.3805 0.8544
vn -0.3754 0.1939 0.9063
vn -0.3827 -0.0000 0.9239
vn -0.3754 -0.1939 0.9063
vn -0.3539 -0.3805 0.8544
vn -0.3189 -0.5528 0.7699
vn -0.2718 -0.7041 0.6561
vn -0.2142 -0.8286 0.5172
vn -0.1484 -0.9217 0.3584
vn -0.0769 -0.9796 0.1857
vn -0.1117 0.9796 0.1671
vn -0.2155 0.9217 0.3225
vn -0.3110 0.8286 0.4654
vn -0.3945 0.7041 0.5905
vn -0.4630 0.5528 0.6929
vn -0.5138 0.3805 0.7689
vn -0.5450 0.1939 0.8157
vn -0.5556 -0.0000 0.8315
vn -0.5450 -0.1939 0.8157
vn -0.5138 -0.3805 0.7689
vn -0.4630 -0.5528 0.6929
vn -0.3945 -0.7041 0.5905
vn -0.3110 -0.8286 0.4654
vn -0.2155 -0.9217 0.3225
vn -0.1117 -0.9796 0.1671
vn -0.1421 0.9796 0.1421
vn -0.2743 0.9217 0.2743
vn -0.3958 0.8286 0.3958
vn -0.5021 0.7041 0.5021
vn -0.5893 0.5528 0.5893
vn -0.6539 0.3805 0.6539
vn -0.6937 0.1939 0.6937
vn -0.7071 -0.0000 0.7071
vn -0.6937 -0.1939 0.6937
vn -0.6539 -0.3805 0.6539
vn -0.5893 -0.5528 0.5893
vn -0.5021 -0.7041 0.5021
vn -0.3958 -0.8286 0.3958
vn -0.2743 -0.9217 0.2743
vn -0.1421 -0.9796 0.1421
vn -0.0000 -1.0000 -0.0000
vn -0.1671 0.9796 0.1117
vn -0.3225 0.9217 0.2155
vn -0.4654 0.8286 0.3110
vn -0.5905 0.7041 0.3945
vn -0.6929 0.5528 0.4630
vn -0.7689 0.3805 0.5138
vn -0.8157 0.1939 0.5450
vn -0.8315 -0.0000 0.5556
vn -0.8157 -0.1939 0.5450
vn -0.7689 -0.3805 0.5138
vn -0.6929 -0.5528 0.4630
vn -0.5905 -0.7041 0.3945
vn -0.4654 -0.8286 0.3110
vn -0.3225 -0.9217 0.2155
vn -0.1671 -0.9796 0.1117
vn -0.1857 0.9796 0.0769
vn -0.3584 0.9217 0.1484
vn -0.5172 0.8286 0.2142
vn -0.6561 0.7041 0.2718
vn -0.7699 0.5528 0.3189
vn -0.8544 0.3805 0.3539
vn -0.9063 0.1939 0.3754
vn -0.9239 -0.0000 0.3827
vn -0.9063 -0.1939 0.3754
vn -0.8544 -0.3805 0.3539
vn -0.7699 -0.5528 0.3189
vn -0.6561 -0.7041 0.2718
vn -0.5172 -0.8286 0.2142
vn -0.3584 -0.9217 0.1484
vn -0.1857 -0.9796 0.0769
vn -0.1971 0.9796 0.0392
vn -0.3804 0.9217 0.0757
vn -0.5490 0.8286 0.1092
vn -0.6965 0.7041 0.1385
vn -0.8173 0.5528 0.1626
vn -0.9070 0.3805 0.1804
vn -0.9622 0.1939 0.1914
vn -0.9808 -0.0000 0.1951
vn -0.9622 -0.1939 0.1914
vn -0.9070 -0.3805 0.1804
vn -0.8173 -0.5528 0.1626
vn -0.6965 -0.7041 0.1385
vn -0.5490 -0.8286 0.1092
vn -0.3804 -0.9217 0.0757
vn -0.1971 -0.9796 0.0392
vn -0.2010 0.9796 -0.0000
vn -0.3879 0.9217 -0.0000
vn -0.5598 0.8286 -0.0000
vn -0.7101 0.7041 -0.0000
vn -0.8333 0.5528 -0.0000
vn -0.9248 0.3805 -0.0000
vn -0.9810 0.1939 -0.0000
vn -1.0000 -0.0000 -0.0000
vn -0.9810 -0.1939 -0.0000
vn -0.9248 -0.3805 -0.0000
vn -0.8333 -0.5528 -0.0000
vn -0.7101 -0.7041 -0.0000
vn -0.5598 -0.8286 -0.0000
vn -0.3879 -0.9217 -0.0000
vn -0.2010 -0.9796 -0.0000
vn -0.1971 0.9796 -0.0392
vn -0.3804 0.9217 -0.0757
vn -0.5490 0.8286 -0.1092
vn -0.6965 0.7041 -0.1385
vn -0.8173 0.5528 -0.1626
vn -0.9070 0.3805 -0.1804
vn -0.9622 0.1939 -0.1914
vn -0.9808 -0.0000 -0.1951
vn -0.9622 -0.1939 -0.1914
vn -0.9070 -0.3805 -0.1804
vn -0.8173 -0.5528 -0.1626
vn -0.6965 -0.7041 -0.1385
vn -0.5490 -0.8286 -0.1092
vn -0.3804 -0.9217 -0.0757
vn -0.1971 -0.9796 -0.0392
vn -0.1857 0.9796 -0.0769
vn -0.3584 0.9217 -0.1484
vn -0.5172 0.8286 -0.2142
vn -0.6561 0.7041 -0.2718
vn -0.7699 0.5528 -0.3189
vn -0.8544 0.3805 -0.3539
vn -0.9063 0.1939 -0.3754
vn -0.9239 -0.0000 -0.3827
vn -0.9063 -0.1939 -0.3754
vn -0.8544 -0.3805 -0.3539
vn -0.7699 -0.5528 -0.3189
vn -0.6561 -0.7041 -0.2718
vn -0.5172 -0.8286 -0.2142
vn -0.3584 -0.9217 -0.1484
vn -0.1857 -0.9796 -0.0769
vn -0.1671 0.9796 -0.1117
vn -0.3225 0.9217 -0.2155
vn -0.4654 0.8286 -0.3110
vn -0.5905 0.7041 -0.3945
vn -0.6929 0.5528 -0.4630
vn -0.7689 0.3805 -0.5138
vn -0.8157 0.1939 -0.5450
vn -0.8315 -0.0000 -0.5556
vn -0.8157 -0.1939 -0.5450
vn -0.7689 -0.3805 -0.5138
vn -0.6929 -0.5528 -0.4630
vn -0.5905 -0.7041 -0.3945
vn -0.4654 -0.8286 -0.3110
vn -0.3225 -0.9217 -0.2155
vn -0.1671 -0.9796 -0.1117
vn -0.1421 0.9796 -0.1421
vn -0.2743 0.9217 -0.2743
vn -0.3958 0.8286 -0.3958
vn -0.5021 0.7041 -0.5021
vn -0.5893 0.5528 -0.5893
vn -0.6539 0.3805 -0.6539
vn -0.6937 0.1939 -0.6937
vn -0.7071 -0.0000 -0.7071
vn -0.6937 -0.1939 -0.6937
vn -0.6539 -0.3805 -0.6539
vn -0.5893 -0.5528 -0.5893
vn -0.5021 -0.7041 -0.5021
vn -0.3958 -0.8286 -0.3958
vn -0.2743 -0.9217 -0.2743
vn -0.1421 -0.9796 -0.1421
vn -0.1117 0.9796 -0.1671
vn -0.2155 0.9217 -0.3225
vn -0.3110 0.8286 -0.4654
vn -0.3945 0.7041 -0.5905
vn -0.4630 0.5528 -0.6929
vn -0.5138 0.3805 -0.7689
vn -0.5450 0.1939 -0.8157
vn -0.5556 -0.0000 -0.8315
vn -0.5450 -0.1939 -0.8157
vn -0.5138 -0.3805 -0.7689
vn -0.4630 -0.5528 -0.6929
vn -0.3945 -0.7041 -0.5905
vn -0.3110 -0.8286 -0.4654
vn -0.2155 -0.9217 -0.3225
vn -0.1117 -0.9796 -0.1671
vn -0.0769 0.9796 -0.1857
vn -0.1484 0.9217 -0.3584
vn -0.2142 0.8286 -0.5172
vn -0.2718 0.7041 -0.6561
vn -0.3189 0.5528 -0.7699
vn -0.3539 0.3805 -0.8544
vn -0.3754 0.1939 -0.9063
vn -0.3827 -0.0000 -0.9239
vn -0.3754 -0.1939 -0.9063
vn -0.3539 -0.3805 -0.8544
vn -0.3189 -0.5528 -0.7699
vn -0.2718 -0.7041 -0.6561
vn -0.2142 -0.8286 -0.5172
vn -0.1484 -0.9217 -0.3584
vn -0.0769 -0.9796 -0.1857
vn -0.0392 0.9796 -0.1971
vn -0.0757 0.9217 -0.3804
vn -0.1092 0.8286 -0.5490
vn -0.1385 0.7041 -0.6965
vn -0.1626 0.5528 -0.8173
vn -0.1804 0.3805 -0.9070
vn -0.1914 0.1939 -0.9622
vn -0.1951 -0.0000 -0.9808
vn -0.1914 -0.1939 -0.9622
vn -0.1804 -0.3805 -0.9070
vn -0.1626 -0.5528 -0.8173
vn -0.1385 -0.7041 -0.6965
vn -0.1092 -0.8286 -0.5490
vn -0.0757 -0.9217 -0.3804
vn -0.0392 -0.9796 -0.1971
vn -0.0000 0.9796 -0.2010
vn -0.0000 0.9217 -0.3879
vn -0.0000 0.7041 -0.7101
vn -0.0000 0.3805 -0.9248
vn -0.0000 -0.3805 -0.9248
vn -0.0000 -0.7041 -0.7101
vn -0.0000 -0.8286 -0.5598
vn -0.0000 -0.9217 -0.3879
vn -0.0000 -0.9796 -0.2010
vt 0.462804 0.242224
vt 0.460657 0.198623
vt 0.504313 0.198623
vt 0.505620 0.242224
vt 0.440795 0.451877
vt 0.478353 0.467571
vt 0.475030 0.475275
vt 0.434278 0.466991
vt 0.467382 0.283252
vt 0.507715 0.283252
vt 0.406182 0.439936
vt 0.396721 0.461878
vt 0.474217 0.320130
vt 0.510516 0.320130
vt 0.476602 0.032120
vt 0.485952 0.000499
vt 0.510206 0.000499
vt 0.507472 0.032120
vt 0.483046 0.351440
vt 0.513915 0.351440
vt 0.469154 0.069241
vt 0.505453 0.069241
vt 0.096522 0.405626
vt 0.097596 0.371099
vt 0.127665 0.368001
vt 0.120146 0.403192
vt 0.463895 0.110437
vt 0.504228 0.110437
vt 0.098401 0.444698
vt 0.114674 0.443021
vt 0.461026 0.154124
vt 0.503843 0.154124
vt 0.103162 0.486812
vt 0.111458 0.485957
vt 0.517411 0.486412
vt 0.110621 0.530351
vt 0.130975 0.444681
vt 0.119768 0.486804
vt 0.547481 0.153243
vt 0.548806 0.197725
vt 0.473336 0.483455
vt 0.549258 0.241343
vt 0.430956 0.483036
vt 0.548821 0.282422
vt 0.391898 0.485172
vt 0.547510 0.319383
vt 0.534925 0.000000
vt 0.538933 0.031485
vt 0.545376 0.350805
vt 0.542447 0.068495
vt 0.157785 0.371069
vt 0.143811 0.405602
vt 0.545334 0.109607
vt 0.583779 0.317919
vt 0.576220 0.349560
vt 0.569777 0.030239
vt 0.578716 0.067030
vt 0.186799 0.380185
vt 0.166608 0.412765
vt 0.585633 0.107980
vt 0.146677 0.449615
vt 0.590263 0.151516
vt 0.127773 0.489319
vt 0.592426 0.195964
vt 0.473336 0.491795
vt 0.592040 0.239616
vt 0.430956 0.499395
vt 0.589121 0.280795
vt 0.391898 0.508921
vt 0.357663 0.489780
vt 0.357663 0.520007
vt 0.475030 0.499974
vt 0.135165 0.493406
vt 0.633497 0.193407
vt 0.632322 0.237108
vt 0.434278 0.515440
vt 0.627065 0.278433
vt 0.396721 0.532215
vt 0.617928 0.315793
vt 0.363802 0.549654
vt 0.206475 0.353128
vt 0.237980 0.370547
vt 0.213592 0.394999
vt 0.598819 0.028431
vt 0.612866 0.064904
vt 0.187659 0.424404
vt 0.623578 0.105618
vt 0.161177 0.457632
vt 0.630545 0.149008
vt 0.624942 0.026130
vt 0.643583 0.062199
vt 0.237134 0.414942
vt 0.206156 0.440073
vt 0.657710 0.102612
vt 0.173918 0.468425
vt 0.666779 0.145816
vt 0.141660 0.498908
vt 0.670441 0.190153
vt 0.478353 0.507679
vt 0.668556 0.233917
vt 0.440795 0.530554
vt 0.661197 0.275427
vt 0.406183 0.554157
vt 0.648646 0.313087
vt 0.375844 0.577581
vt 0.265663 0.393998
vt 0.701838 0.186326
vt 0.699350 0.230164
vt 0.483176 0.514614
vt 0.450257 0.544156
vt 0.690204 0.271891
vt 0.419918 0.573904
vt 0.290645 0.378044
vt 0.315975 0.409801
vt 0.288459 0.422577
vt 0.393326 0.602714
vt 0.256521 0.439247
vt 0.350946 0.599926
vt 0.371503 0.629480
vt 0.221388 0.459170
vt 0.669689 0.059017
vt 0.686717 0.099076
vt 0.184410 0.481579
vt 0.697572 0.142063
vt 0.147009 0.505614
vt 0.271008 0.466981
vt 0.232770 0.480960
vt 0.355287 0.653173
vt 0.397667 0.654613
vt 0.384359 0.681100
vt 0.192250 0.496588
vt 0.903072 0.002934
vt 0.944704 0.012505
vt 0.947944 0.041546
vt 0.906511 0.033764
vt 0.151006 0.513266
vt 0.859262 0.000000
vt 0.862768 0.031434
vt 0.489315 0.520511
vt 0.814958 0.003815
vt 0.818397 0.034645
vt 0.462299 0.555723
vt 0.771862 0.014232
vt 0.775102 0.043273
vt 0.437401 0.590697
vt 0.334903 0.446036
vt 0.305494 0.455189
vt 0.415577 0.624088
vt 0.496534 0.525144
vt 0.476459 0.564812
vt 0.821219 0.070909
vt 0.777761 0.077434
vt 0.457958 0.603892
vt 0.734547 0.056987
vt 0.736940 0.087731
vt 0.441742 0.640882
vt 0.316111 0.490578
vt 0.280037 0.497077
vt 0.428434 0.674361
vt 0.239865 0.504606
vt 0.985474 0.054480
vt 0.987867 0.085224
vt 0.950602 0.075707
vt 0.197137 0.512876
vt 0.909333 0.070029
vt 0.153497 0.521569
vt 0.865646 0.068409
vt 0.989645 0.119393
vt 0.952578 0.113674
vt 0.242399 0.529200
vt 0.198883 0.529816
vt 0.911431 0.110335
vt 0.154387 0.530205
vt 0.867784 0.109504
vt 0.504555 0.528336
vt 0.823317 0.111215
vt 0.492193 0.571072
vt 0.779736 0.115400
vt 0.480800 0.612980
vt 0.738718 0.121900
vt 0.470814 0.652450
vt 0.319904 0.527385
vt 0.283263 0.528379
vt 0.462619 0.687963
vt 0.824608 0.154012
vt 0.780953 0.155715
vt 0.508896 0.574264
vt 0.505049 0.617614
vt 0.739813 0.158182
vt 0.501677 0.658347
vt 0.701838 0.130464
vt 0.702769 0.161320
vt 0.498910 0.694897
vt 0.280560 0.559683
vt 0.240275 0.553796
vt 0.990740 0.155675
vt 0.953794 0.153988
vt 0.197420 0.546759
vt 0.912722 0.153132
vt 0.153641 0.538842
vt 0.869101 0.153140
vt 0.513070 0.529963
vt 0.233576 0.577449
vt 0.192806 0.563051
vt 0.954205 0.195100
vt 0.913158 0.196777
vt 0.151289 0.547148
vt 0.869546 0.197640
vt 0.521752 0.529963
vt 0.825044 0.197657
vt 0.525926 0.574264
vt 0.781364 0.196827
vt 0.529773 0.617614
vt 0.740182 0.195182
vt 0.533145 0.658347
vt 0.703083 0.192786
vt 0.535912 0.694897
vt 0.272033 0.589788
vt 0.991110 0.192675
vt 0.780953 0.237158
vt 0.739813 0.231479
vt 0.554022 0.612980
vt 0.564008 0.652449
vt 0.702769 0.223653
vt 0.572203 0.687963
vt 0.258010 0.617536
vt 0.222558 0.599250
vt 0.990740 0.228972
vt 0.953794 0.235431
vt 0.185216 0.578068
vt 0.912722 0.239591
vt 0.147420 0.554804
vt 0.869101 0.241293
vt 0.530267 0.528336
vt 0.824608 0.240472
vt 0.542629 0.571072
vt 0.174944 0.591233
vt 0.142183 0.561515
vt 0.911431 0.279931
vt 0.867784 0.282423
vt 0.538288 0.525144
vt 0.823317 0.280811
vt 0.558363 0.564812
vt 0.779736 0.275156
vt 0.576864 0.603892
vt 0.738718 0.265677
vt 0.593080 0.640882
vt 0.701838 0.252736
vt 0.606388 0.674361
vt 0.239029 0.641861
vt 0.207645 0.618362
vt 0.989645 0.263170
vt 0.952578 0.273429
vt 0.597421 0.590697
vt 0.619244 0.624088
vt 0.267891 0.660826
vt 0.240600 0.684304
vt 0.215820 0.661827
vt 0.637154 0.654613
vt 0.189410 0.634050
vt 0.987867 0.293955
vt 0.950602 0.307636
vt 0.162383 0.602038
vt 0.909333 0.316244
vt 0.135780 0.567024
vt 0.865646 0.319448
vt 0.545507 0.520511
vt 0.821219 0.317125
vt 0.572523 0.555723
vt 0.777761 0.309363
vt 0.736940 0.296462
vt 0.683876 0.509537
vt 0.686643 0.465820
vt 0.722934 0.463360
vt 0.720878 0.507029
vt 0.551646 0.514614
vt 0.128456 0.571118
vt 0.686643 0.553938
vt 0.722934 0.551478
vt 0.584565 0.544156
vt 0.694838 0.597317
vt 0.729024 0.595000
vt 0.614903 0.573904
vt 0.708147 0.638007
vt 0.738913 0.635921
vt 0.641495 0.602714
vt 0.726057 0.674444
vt 0.752221 0.672670
vt 0.663319 0.629480
vt 0.189275 0.676669
vt 0.168553 0.645710
vt 0.694838 0.424467
vt 0.708147 0.387067
vt 0.738913 0.384982
vt 0.729024 0.422150
vt 0.148017 0.610070
vt 0.773098 0.634485
vt 0.781293 0.671449
vt 0.658978 0.577581
vt 0.683876 0.599926
vt 0.160414 0.685814
vt 0.145877 0.652896
vt 0.773098 0.383545
vt 0.767008 0.420553
vt 0.132397 0.615020
vt 0.763258 0.461665
vt 0.120493 0.573642
vt 0.761992 0.505301
vt 0.556469 0.507679
vt 0.763258 0.549784
vt 0.594026 0.530554
vt 0.767008 0.593404
vt 0.628639 0.554156
vt 0.559792 0.499974
vt 0.112197 0.574496
vt 0.805639 0.504420
vt 0.806067 0.548920
vt 0.600543 0.515440
vt 0.807333 0.592590
vt 0.638101 0.532215
vt 0.809389 0.633753
vt 0.671020 0.549654
vt 0.812156 0.670826
vt 0.781293 0.352063
vt 0.812156 0.351440
vt 0.809389 0.382813
vt 0.130345 0.688913
vt 0.122252 0.655330
vt 0.807333 0.419740
vt 0.116125 0.616697
vt 0.806067 0.460802
vt 0.843624 0.351440
vt 0.846391 0.382813
vt 0.815528 0.702385
vt 0.843624 0.670826
vt 0.840252 0.702385
vt 0.848447 0.419740
vt 0.098587 0.652920
vt 0.099824 0.615037
vt 0.849713 0.460802
vt 0.103887 0.573650
vt 0.850141 0.504420
vt 0.561485 0.491795
vt 0.849713 0.548920
vt 0.603866 0.499395
vt 0.848447 0.592590
vt 0.642924 0.508921
vt 0.846391 0.633753
vt 0.677159 0.520007
vt 0.893788 0.505301
vt 0.892522 0.549784
vt 0.561485 0.483455
vt 0.603866 0.483036
vt 0.888772 0.593404
vt 0.642924 0.485171
vt 0.882682 0.634485
vt 0.677159 0.489780
vt 0.874487 0.671449
vt 0.874487 0.352063
vt 0.882682 0.383545
vt 0.864501 0.702874
vt 0.888772 0.420553
vt 0.075791 0.645757
vt 0.084122 0.610103
vt 0.892522 0.461665
vt 0.095882 0.571135
vt 0.903559 0.672670
vt 0.887343 0.703834
vt 0.916867 0.384982
vt 0.926756 0.422150
vt 0.054740 0.634118
vt 0.069621 0.602086
vt 0.932846 0.463360
vt 0.088490 0.567048
vt 0.934902 0.507029
vt 0.559791 0.475275
vt 0.932846 0.551478
vt 0.600543 0.466991
vt 0.926756 0.595000
vt 0.638101 0.461878
vt 0.916867 0.635921
vt 0.671020 0.460133
vt 0.903559 0.353285
vt 0.969137 0.553938
vt 0.960942 0.597317
vt 0.594026 0.451877
vt 0.628639 0.439936
vt 0.947633 0.638007
vt 0.658978 0.432206
vt 0.929723 0.674444
vt 0.929723 0.355058
vt 0.947633 0.387067
vt 0.044418 0.661914
vt 0.020876 0.641971
vt 0.036243 0.618449
vt 0.960942 0.424467
vt 0.056880 0.591293
vt 0.969137 0.465820
vt 0.081995 0.561545
vt 0.971904 0.509537
vt 0.556469 0.467570
vt 0.021011 0.599353
vt 0.046388 0.578139
vt 0.990014 0.427416
vt 1.000000 0.468951
vt 0.076646 0.554840
vt 0.000000 0.159685
vt 0.003809 0.115942
vt 0.034702 0.113120
vt 0.031498 0.156807
vt 0.551646 0.460636
vt 0.002929 0.204056
vt 0.033821 0.201234
vt 0.584565 0.438275
vt 1.000000 0.557069
vt 0.990014 0.600266
vt 0.614903 0.420189
vt 0.973798 0.640661
vt 0.641495 0.407073
vt 0.951974 0.676701
vt 0.683876 0.428984
vt 0.663319 0.399430
vt 0.001489 0.617666
vt 0.973798 0.389722
vt 0.572523 0.426708
vt 0.597421 0.403396
vt 0.054484 0.285513
vt 0.041583 0.244693
vt 0.075789 0.242717
vt 0.085269 0.283735
vt 0.619244 0.385699
vt 0.072029 0.322127
vt 0.098210 0.320615
vt 0.056991 0.034586
vt 0.075220 0.002758
vt 0.101401 0.001246
vt 0.087776 0.032808
vt 0.093544 0.353128
vt 0.114114 0.351940
vt 0.043310 0.071851
vt 0.077516 0.069875
vt 0.009629 0.577563
vt 0.038548 0.563129
vt 0.071015 0.111023
vt 0.072649 0.547188
vt 0.068523 0.154669
vt 0.545507 0.454739
vt 0.070135 0.199137
vt 0.115515 0.068659
vt 0.111355 0.109731
vt 0.033661 0.546842
vt 0.070158 0.538885
vt 0.109653 0.153352
vt 0.538288 0.450106
vt 0.110474 0.197845
vt 0.558363 0.417619
vt 0.113788 0.241500
vt 0.576864 0.390201
vt 0.119467 0.282640
vt 0.593080 0.368905
vt 0.127293 0.319684
vt 0.130484 0.000314
vt 0.121974 0.031713
vt 0.136964 0.351208
vt 0.002534 0.553916
vt 0.154119 0.241090
vt 0.155764 0.282271
vt 0.554022 0.381112
vt 0.564008 0.357337
vt 0.158160 0.319370
vt 0.161351 0.000000
vt 0.158271 0.031344
vt 0.161217 0.350961
vt 0.155846 0.068248
vt -0.000000 0.529323
vt 0.031916 0.529901
vt 0.154169 0.109295
vt 0.069268 0.530248
vt 0.153306 0.152907
vt 0.530267 0.446914
vt 0.153289 0.197409
vt 0.542629 0.411359
vt 0.033378 0.512959
vt 0.070014 0.521611
vt 0.197814 0.109731
vt 0.197806 0.153352
vt 0.521752 0.445287
vt 0.196934 0.197845
vt 0.525926 0.408167
vt 0.195231 0.241500
vt 0.529773 0.376479
vt 0.192764 0.282640
vt 0.533145 0.351440
vt 0.189626 0.319684
vt 0.192817 0.000314
vt 0.195271 0.031713
vt 0.185939 0.351208
vt 0.196958 0.068659
vt 0.002123 0.504727
vt 0.505049 0.376479
vt 0.501677 0.351440
vt 0.229046 0.283735
vt 0.220482 0.320615
vt 0.223673 0.001246
vt 0.231553 0.032808
vt 0.210182 0.351940
vt 0.237272 0.069875
vt 0.008823 0.481073
vt 0.037993 0.496666
vt 0.240611 0.111023
vt 0.072366 0.513306
vt 0.241442 0.154669
vt 0.513070 0.445287
vt 0.239731 0.199137
vt 0.508896 0.408167
vt 0.235545 0.242717
vt 0.280917 0.113120
vt 0.282537 0.156807
vt 0.504555 0.446914
vt 0.076235 0.505650
vt 0.280037 0.201234
vt 0.492193 0.411359
vt 0.273512 0.244693
vt 0.480800 0.381112
vt 0.263215 0.285513
vt 0.470814 0.357337
vt 0.249540 0.322127
vt 0.252731 0.002758
vt 0.265722 0.034586
vt 0.233013 0.353128
vt 0.275239 0.071851
vt 0.019841 0.459272
vt 0.045582 0.481649
vt 0.293959 0.287906
vt 0.275686 0.324162
vt 0.278877 0.004792
vt 0.296466 0.036979
vt -0.000000 0.439377
vt 0.018981 0.415053
vt 0.034754 0.440160
vt 0.309400 0.074510
vt 0.055855 0.468485
vt 0.317182 0.115942
vt 0.081472 0.498939
vt 0.319512 0.159685
vt 0.496534 0.450106
vt 0.316301 0.204056
vt 0.476459 0.417619
vt 0.307673 0.247351
vt 0.457958 0.390201
vt 0.441742 0.368905
vt 0.087875 0.493430
vt 0.350946 0.163191
vt 0.347131 0.207495
vt 0.489315 0.454739
vt 0.462299 0.426708
vt 0.336714 0.250591
vt 0.437401 0.403396
vt 0.320095 0.290822
vt 0.415577 0.385699
vt 0.297913 0.326642
vt 0.377933 0.064904
vt 0.399024 0.028431
vt 0.421316 0.030239
vt 0.404145 0.067030
vt 0.042190 0.395086
vt 0.052989 0.424473
vt 0.362535 0.105618
vt 0.391661 0.107980
vt 0.068415 0.457679
vt 0.353422 0.149008
vt 0.384342 0.151516
vt 0.350946 0.193407
vt 0.382471 0.195964
vt 0.068735 0.380245
vt 0.073846 0.412812
vt 0.434947 0.068494
vt 0.425886 0.109607
vt 0.082781 0.449647
vt 0.420675 0.153243
vt 0.095199 0.489335
vt 0.419517 0.197725
vt 0.483176 0.460636
vt 0.386120 0.239616
vt 0.422453 0.241343
vt 0.450257 0.438275
vt 0.395148 0.280795
vt 0.429373 0.282422
vt 0.419918 0.420189
vt 0.409208 0.317919
vt 0.440010 0.319383
vt 0.393326 0.407073
vt 0.427760 0.349560
vt 0.453955 0.350805
vt 0.447511 0.031485
vt 0.463096 0.000000
s 1
f 5/1/5 4/2/4 14/3/14 15/4/15
f 475/5/475 474/6/474 7/7/7 8/8/8
f 478/9/478 5/1/5 15/4/15 16/10/16
f 1/11/1 475/5/475 8/8/8 9/12/9
f 6/13/6 478/9/478 16/10/16 17/14/17
f 476/15/476 1/16/1 9/17/9 10/18/10
f 479/19/479 6/13/6 17/14/17 18/20/18
f 2/21/2 476/15/476 10/18/10 11/22/11
f 480/23/480 479/24/479 18/25/18 19/26/19
f 477/27/477 2/21/2 11/22/11 12/28/12
f 481/29/481 480/23/480 19/26/19 20/30/20
f 3/31/3 477/27/477 12/28/12 13/32/13
f 482/33/482 481/29/481 20/30/20 21/34/21
f 4/2/4 3/31/3 13/32/13 14/3/14
f 474/6/474 82/35/82 7/7/7
f 308/36/308 482/33/482 21/34/21
f 21/34/21 20/30/20 35/37/35 36/38/36
f 14/3/14 13/32/13 28/39/28 29/40/29
f 7/7/7 82/35/82 22/41/22
f 308/36/308 21/34/21 36/38/36
f 15/4/15 14/3/14 29/40/29 30/42/30
f 8/8/8 7/7/7 22/41/22 23/43/23
f 16/10/16 15/4/15 30/42/30 31/44/31
f 9/12/9 8/8/8 23/43/23 24/45/24
f 17/14/17 16/10/16 31/44/31 32/46/32
f 10/18/10 9/17/9 24/47/24 25/48/25
f 18/20/18 17/14/17 32/46/32 33/49/33
f 11/22/11 10/18/10 25/48/25 26/50/26
f 19/26/19 18/25/18 33/51/33 34/52/34
f 12/28/12 11/22/11 26/50/26 27/53/27
f 20/30/20 19/26/19 34/52/34 35/37/35
f 13/32/13 12/28/12 27/53/27 28/39/28
f 33/49/33 32/46/32 47/54/47 48/55/48
f 26/50/26 25/48/25 40/56/40 41/57/41
f 34/52/34 33/51/33 48/58/48 49/59/49
f 27/53/27 26/50/26 41/57/41 42/60/42
f 35/37/35 34/52/34 49/59/49 50/61/50
f 28/39/28 27/53/27 42/60/42 43/62/43
f 36/38/36 35/37/35 50/61/50 51/63/51
f 29/40/29 28/39/28 43/62/43 44/64/44
f 22/41/22 82/35/82 37/65/37
f 308/36/308 36/38/36 51/63/51
f 30/42/30 29/40/29 44/64/44 45/66/45
f 23/43/23 22/41/22 37/65/37 38/67/38
f 31/44/31 30/42/30 45/66/45 46/68/46
f 24/45/24 23/43/23 38/67/38 39/69/39
f 32/46/32 31/44/31 46/68/46 47/54/47
f 25/70/25 24/45/24 39/69/39 40/71/40
f 37/65/37 82/35/82 52/72/52
f 308/36/308 51/63/51 66/73/66
f 45/66/45 44/64/44 59/74/59 60/75/60
f 38/67/38 37/65/37 52/72/52 53/76/53
f 46/68/46 45/66/45 60/75/60 61/77/61
f 39/69/39 38/67/38 53/76/53 54/78/54
f 47/54/47 46/68/46 61/77/61 62/79/62
f 40/71/40 39/69/39 54/78/54 55/80/55
f 48/58/48 47/81/47 62/82/62 63/83/63
f 41/57/41 40/56/40 55/84/55 56/85/56
f 49/59/49 48/58/48 63/83/63 64/86/64
f 42/60/42 41/57/41 56/85/56 57/87/57
f 50/61/50 49/59/49 64/86/64 65/88/65
f 43/62/43 42/60/42 57/87/57 58/89/58
f 51/63/51 50/61/50 65/88/65 66/73/66
f 44/64/44 43/62/43 58/89/58 59/74/59
f 56/85/56 55/84/55 70/90/70 71/91/71
f 64/86/64 63/83/63 78/92/78 79/93/79
f 57/87/57 56/85/56 71/91/71 72/94/72
f 65/88/65 64/86/64 79/93/79 80/95/80
f 58/89/58 57/87/57 72/94/72 73/96/73
f 66/73/66 65/88/65 80/95/80 81/97/81
f 59/74/59 58/89/58 73/96/73 74/98/74
f 52/72/52 82/35/82 67/99/67
f 308/36/308 66/73/66 81/97/81
f 60/75/60 59/74/59 74/98/74 75/100/75
f 53/76/53 52/72/52 67/99/67 68/101/68
f 61/77/61 60/75/60 75/100/75 76/102/76
f 54/78/54 53/76/53 68/101/68 69/103/69
f 62/79/62 61/77/61 76/102/76 77/104/77
f 55/80/55 54/78/54 69/103/69 70/105/70
f 63/83/63 62/82/62 77/106/77 78/92/78
f 75/100/75 74/98/74 90/107/90 91/108/91
f 68/101/68 67/99/67 83/109/83 84/110/84
f 76/102/76 75/100/75 91/108/91 92/111/92
f 69/103/69 68/101/68 84/110/84 85/112/85
f 77/106/77 76/113/76 92/114/92 93/115/93
f 70/105/70 69/103/69 85/112/85 86/116/86
f 78/92/78 77/106/77 93/115/93 94/117/94
f 71/118/71 70/105/70 86/116/86 87/119/87
f 79/93/79 78/92/78 94/117/94 95/120/95
f 72/94/72 71/91/71 87/121/87 88/122/88
f 80/95/80 79/93/79 95/120/95 96/123/96
f 73/96/73 72/94/72 88/122/88 89/124/89
f 81/97/81 80/95/80 96/123/96 97/125/97
f 74/98/74 73/96/73 89/124/89 90/107/90
f 67/99/67 82/35/82 83/109/83
f 308/36/308 81/97/81 97/125/97
f 95/120/95 94/117/94 109/126/109 110/127/110
f 88/128/88 87/119/87 102/129/102 103/130/103
f 96/123/96 95/120/95 110/127/110 111/131/111
f 89/132/89 88/133/88 103/134/103 104/135/104
f 97/125/97 96/123/96 111/131/111 112/136/112
f 90/137/90 89/132/89 104/135/104 105/138/105
f 83/109/83 82/35/82 98/139/98
f 308/36/308 97/125/97 112/136/112
f 91/140/91 90/137/90 105/138/105 106/141/106
f 84/110/84 83/109/83 98/139/98 99/142/99
f 92/143/92 91/140/91 106/141/106 107/144/107
f 85/112/85 84/110/84 99/142/99 100/145/100
f 93/115/93 92/114/92 107/146/107 108/147/108
f 86/116/86 85/112/85 100/145/100 101/148/101
f 94/117/94 93/115/93 108/147/108 109/126/109
f 87/119/87 86/116/86 101/148/101 102/129/102
f 99/142/99 98/139/98 113/149/113 114/150/114
f 107/144/107 106/141/106 121/151/121 122/152/122
f 100/145/100 99/142/99 114/150/114 115/153/115
f 108/154/108 107/144/107 122/152/122 123/155/123
f 101/148/101 100/145/100 115/153/115 116/156/116
f 109/126/109 108/147/108 123/157/123 124/158/124
f 102/129/102 101/148/101 116/156/116 117/159/117
f 110/127/110 109/126/109 124/158/124 125/160/125
f 103/134/103 102/161/102 117/162/117 118/163/118
f 111/131/111 110/127/110 125/160/125 126/164/126
f 104/135/104 103/134/103 118/163/118 119/165/119
f 112/136/112 111/131/111 126/164/126 127/166/127
f 105/138/105 104/135/104 119/165/119 120/167/120
f 98/139/98 82/35/82 113/149/113
f 308/36/308 112/136/112 127/166/127
f 106/141/106 105/138/105 120/167/120 121/151/121
f 118/163/118 117/162/117 132/168/132 133/169/133
f 126/164/126 125/160/125 140/170/140 141/171/141
f 119/165/119 118/163/118 133/169/133 134/172/134
f 127/166/127 126/164/126 141/171/141 142/173/142
f 120/167/120 119/165/119 134/172/134 135/174/135
f 113/149/113 82/35/82 128/175/128
f 308/36/308 127/166/127 142/173/142
f 121/151/121 120/167/120 135/174/135 136/176/136
f 114/150/114 113/149/113 128/175/128 129/177/129
f 122/152/122 121/151/121 136/176/136 137/178/137
f 115/153/115 114/150/114 129/177/129 130/179/130
f 123/155/123 122/152/122 137/178/137 138/180/138
f 116/156/116 115/153/115 130/179/130 131/181/131
f 124/158/124 123/157/123 138/182/138 139/183/139
f 117/159/117 116/156/116 131/181/131 132/184/132
f 125/160/125 124/158/124 139/183/139 140/170/140
f 137/178/137 136/176/136 151/185/151 152/186/152
f 130/179/130 129/177/129 144/187/144 145/188/145
f 138/180/138 137/178/137 152/186/152 153/189/153
f 131/181/131 130/179/130 145/188/145 146/190/146
f 139/191/139 138/180/138 153/189/153 154/192/154
f 132/184/132 131/181/131 146/190/146 147/193/147
f 140/170/140 139/183/139 154/194/154 155/195/155
f 133/169/133 132/168/132 147/196/147 148/197/148
f 141/171/141 140/170/140 155/195/155 156/198/156
f 134/172/134 133/169/133 148/197/148 149/199/149
f 142/173/142 141/171/141 156/198/156 157/200/157
f 135/174/135 134/172/134 149/199/149 150/201/150
f 128/175/128 82/35/82 143/202/143
f 308/36/308 142/173/142 157/200/157
f 136/176/136 135/174/135 150/201/150 151/185/151
f 129/177/129 128/175/128 143/202/143 144/187/144
f 156/198/156 155/195/155 170/203/170 171/204/171
f 149/199/149 148/197/148 163/205/163 164/206/164
f 157/200/157 156/198/156 171/204/171 172/207/172
f 150/201/150 149/199/149 164/206/164 165/208/165
f 143/202/143 82/35/82 158/209/158
f 308/36/308 157/200/157 172/207/172
f 151/185/151 150/201/150 165/208/165 166/210/166
f 144/187/144 143/202/143 158/209/158 159/211/159
f 152/186/152 151/185/151 166/210/166 167/212/167
f 145/188/145 144/187/144 159/211/159 160/213/160
f 153/189/153 152/186/152 167/212/167 168/214/168
f 146/190/146 145/188/145 160/213/160 161/215/161
f 154/192/154 153/189/153 168/214/168 169/216/169
f 147/193/147 146/190/146 161/215/161 162/217/162
f 155/195/155 154/194/154 169/218/169 170/203/170
f 148/197/148 147/196/147 162/219/162 163/205/163
f 168/214/168 167/212/167 182/220/182 183/221/183
f 161/215/161 160/213/160 175/222/175 176/223/176
f 169/216/169 168/214/168 183/221/183 184/224/184
f 162/217/162 161/215/161 176/223/176 177/225/177
f 170/203/170 169/218/169 184/226/184 185/227/185
f 163/205/163 162/219/162 177/228/177 178/229/178
f 171/204/171 170/203/170 185/227/185 186/230/186
f 164/206/164 163/205/163 178/229/178 179/231/179
f 172/207/172 171/204/171 186/230/186 187/232/187
f 165/208/165 164/206/164 179/231/179 180/233/180
f 158/209/158 82/35/82 173/234/173
f 308/36/308 172/207/172 187/232/187
f 166/210/166 165/208/165 180/233/180 181/235/181
f 159/211/159 158/209/158 173/234/173 174/236/174
f 167/212/167 166/210/166 181/235/181 182/220/182
f 160/213/160 159/211/159 174/236/174 175/222/175
f 187/232/187 186/230/186 201/237/201 202/238/202
f 180/233/180 179/231/179 194/239/194 195/240/195
f 173/234/173 82/35/82 188/241/188
f 308/36/308 187/232/187 202/238/202
f 181/235/181 180/233/180 195/240/195 196/242/196
f 174/236/174 173/234/173 188/241/188 189/243/189
f 182/220/182 181/235/181 196/242/196 197/244/197
f 175/222/175 174/236/174 189/243/189 190/245/190
f 183/221/183 182/220/182 197/244/197 198/246/198
f 176/223/176 175/222/175 190/245/190 191/247/191
f 184/224/184 183/221/183 198/246/198 199/248/199
f 177/225/177 176/223/176 191/247/191 192/249/192
f 185/227/185 184/226/184 199/250/199 200/251/200
f 178/229/178 177/228/177 192/252/192 193/253/193
f 186/230/186 185/227/185 200/251/200 201/237/201
f 179/231/179 178/229/178 193/253/193 194/239/194
f 191/247/191 190/245/190 205/254/205 206/255/206
f 199/250/199 198/256/198 213/257/213 214/258/214
f 192/249/192 191/247/191 206/255/206 207/259/207
f 200/251/200 199/250/199 214/258/214 215/260/215
f 193/253/193 192/252/192 207/261/207 208/262/208
f 201/237/201 200/251/200 215/260/215 216/263/216
f 194/239/194 193/253/193 208/262/208 209/264/209
f 202/238/202 201/237/201 216/263/216 217/265/217
f 195/240/195 194/239/194 209/264/209 210/266/210
f 188/241/188 82/35/82 203/267/203
f 308/36/308 202/238/202 217/265/217
f 196/242/196 195/240/195 210/266/210 211/268/211
f 189/243/189 188/241/188 203/267/203 204/269/204
f 197/244/197 196/242/196 211/268/211 212/270/212
f 190/245/190 189/243/189 204/269/204 205/254/205
f 198/246/198 197/244/197 212/270/212 213/271/213
f 210/272/210 209/273/209 224/274/224 225/275/225
f 203/267/203 82/35/82 218/276/218
f 308/36/308 217/265/217 232/277/232
f 211/278/211 210/272/210 225/275/225 226/279/226
f 204/269/204 203/267/203 218/276/218 219/280/219
f 212/281/212 211/278/211 226/279/226 227/282/227
f 205/254/205 204/269/204 219/280/219 220/283/220
f 213/284/213 212/281/212 227/282/227 228/285/228
f 206/255/206 205/254/205 220/283/220 221/286/221
f 214/287/214 213/284/213 228/285/228 229/288/229
f 207/259/207 206/255/206 221/286/221 222/289/222
f 215/260/215 214/258/214 229/290/229 230/291/230
f 208/292/208 207/293/207 222/294/222 223/295/223
f 216/263/216 215/260/215 230/291/230 231/296/231
f 209/273/209 208/292/208 223/295/223 224/274/224
f 217/265/217 216/263/216 231/296/231 232/277/232
f 229/288/229 228/285/228 243/297/243 244/298/244
f 222/289/222 221/286/221 236/299/236 237/300/237
f 230/291/230 229/290/229 244/301/244 245/302/245
f 223/295/223 222/294/222 237/303/237 238/304/238
f 231/296/231 230/291/230 245/302/245 246/305/246
f 224/274/224 223/295/223 238/304/238 239/306/239
f 232/277/232 231/296/231 246/305/246 247/307/247
f 225/275/225 224/274/224 239/306/239 240/308/240
f 218/276/218 82/35/82 233/309/233
f 308/36/308 232/277/232 247/307/247
f 226/279/226 225/275/225 240/308/240 241/310/241
f 219/280/219 218/276/218 233/309/233 234/311/234
f 227/282/227 226/279/226 241/310/241 242/312/242
f 220/283/220 219/280/219 234/311/234 235/313/235
f 228/285/228 227/282/227 242/312/242 243/297/243
f 221/286/221 220/283/220 235/313/235 236/299/236
f 233/309/233 82/35/82 248/314/248
f 308/36/308 247/307/247 262/315/262
f 241/310/241 240/308/240 255/316/255 256/317/256
f 234/311/234 233/309/233 248/314/248 249/318/249
f 242/312/242 241/310/241 256/317/256 257/319/257
f 235/313/235 234/311/234 249/318/249 250/320/250
f 243/297/243 242/312/242 257/319/257 258/321/258
f 236/299/236 235/313/235 250/320/250 251/322/251
f 244/298/244 243/297/243 258/321/258 259/323/259
f 237/303/237 236/324/236 251/325/251 252/326/252
f 245/302/245 244/301/244 259/327/259 260/328/260
f 238/304/238 237/303/237 252/326/252 253/329/253
f 246/305/246 245/302/245 260/328/260 261/330/261
f 239/306/239 238/304/238 253/329/253 254/331/254
f 247/307/247 246/305/246 261/330/261 262/315/262
f 240/308/240 239/306/239 254/331/254 255/316/255
f 252/326/252 251/325/251 266/332/266 267/333/267
f 260/334/260 259/323/259 274/335/274 275/336/275
f 253/329/253 252/326/252 267/333/267 268/337/268
f 261/330/261 260/328/260 275/338/275 276/339/276
f 254/331/254 253/329/253 268/337/268 269/340/269
f 262/315/262 261/330/261 276/339/276 277/341/277
f 255/316/255 254/331/254 269/340/269 270/342/270
f 248/314/248 82/35/82 263/343/263
f 308/36/308 262/315/262 277/341/277
f 256/317/256 255/316/255 270/342/270 271/344/271
f 249/318/249 248/314/248 263/343/263 264/345/264
f 257/319/257 256/317/256 271/344/271 272/346/272
f 250/320/250 249/318/249 264/345/264 265/347/265
f 258/321/258 257/319/257 272/346/272 273/348/273
f 251/322/251 250/320/250 265/347/265 266/349/266
f 259/323/259 258/321/258 273/348/273 274/335/274
f 271/344/271 270/342/270 285/350/285 286/351/286
f 264/345/264 263/343/263 278/352/278 279/353/279
f 272/346/272 271/344/271 286/351/286 287/354/287
f 265/347/265 264/345/264 279/353/279 280/355/280
f 273/348/273 272/346/272 287/354/287 288/356/288
f 266/349/266 265/347/265 280/355/280 281/357/281
f 274/335/274 273/348/273 288/356/288 289/358/289
f 267/333/267 266/332/266 281/359/281 282/360/282
f 275/336/275 274/335/274 289/358/289 290/361/290
f 268/337/268 267/333/267 282/360/282 283/362/283
f 276/339/276 275/338/275 290/363/290 291/364/291
f 269/340/269 268/337/268 283/362/283 284/365/284
f 277/341/277 276/339/276 291/364/291 292/366/292
f 270/342/270 269/340/269 284/365/284 285/350/285
f 263/343/263 82/35/82 278/352/278
f 308/36/308 277/341/277 292/366/292
f 290/361/290 289/358/289 304/367/304 305/368/305
f 283/362/283 282/360/282 297/369/297 298/370/298
f 291/364/291 290/363/290 305/371/305 306/372/306
f 284/365/284 283/362/283 298/370/298 299/373/299
f 292/366/292 291/364/291 306/372/306 307/374/307
f 285/350/285 284/365/284 299/373/299 300/375/300
f 278/352/278 82/35/82 293/376/293
f 308/36/308 292/366/292 307/374/307
f 286/351/286 285/350/285 300/375/300 301/377/301
f 279/353/279 278/352/278 293/376/293 294/378/294
f 287/354/287 286/351/286 301/377/301 302/379/302
f 280/355/280 279/353/279 294/378/294 295/380/295
f 288/356/288 287/354/287 302/379/302 303/381/303
f 281/357/281 280/355/280 295/380/295 296/382/296
f 289/358/289 288/356/288 303/381/303 304/367/304
f 282/360/282 281/359/281 296/383/296 297/369/297
f 302/379/302 301/377/301 317/384/317 318/385/318
f 295/380/295 294/378/294 310/386/310 311/387/311
f 303/381/303 302/379/302 318/385/318 319/388/319
f 296/382/296 295/380/295 311/387/311 312/389/312
f 304/367/304 303/381/303 319/388/319 320/390/320
f 297/369/297 296/383/296 312/391/312 313/392/313
f 305/371/305 304/393/304 320/394/320 321/395/321
f 298/370/298 297/369/297 313/392/313 314/396/314
f 306/372/306 305/371/305 321/395/321 322/397/322
f 299/373/299 298/370/298 314/396/314 315/398/315
f 307/374/307 306/372/306 322/397/322 323/399/323
f 300/375/300 299/373/299 315/398/315 316/400/316
f 293/376/293 82/35/82 309/401/309
f 308/36/308 307/374/307 323/399/323
f 301/377/301 300/375/300 316/400/316 317/384/317
f 294/378/294 293/376/293 309/401/309 310/386/310
f 322/397/322 321/395/321 336/402/336 337/403/337
f 315/398/315 314/396/314 329/404/329 330/405/330
f 323/399/323 322/397/322 337/403/337 338/406/338
f 316/407/316 315/408/315 330/409/330 331/410/331
f 309/401/309 82/35/82 324/411/324
f 308/36/308 323/399/323 338/406/338
f 317/412/317 316/407/316 331/410/331 332/413/332
f 310/386/310 309/401/309 324/411/324 325/414/325
f 318/385/318 317/384/317 332/415/332 333/416/333
f 311/387/311 310/386/310 325/414/325 326/417/326
f 319/388/319 318/385/318 333/416/333 334/418/334
f 312/389/312 311/387/311 326/417/326 327/419/327
f 320/390/320 319/388/319 334/418/334 335/420/335
f 313/421/313 312/389/312 327/419/327 328/422/328
f 321/395/321 320/394/320 335/423/335 336/402/336
f 314/396/314 313/392/313 328/424/328 329/404/329
f 326/417/326 325/414/325 340/425/340 341/426/341
f 334/427/334 333/428/333 348/429/348 349/430/349
f 327/419/327 326/417/326 341/426/341 342/431/342
f 335/432/335 334/427/334 349/430/349 350/433/350
f 328/434/328 327/435/327 342/436/342 343/437/343
f 336/438/336 335/432/335 350/433/350 351/439/351
f 329/440/329 328/434/328 343/437/343 344/441/344
f 337/403/337 336/402/336 351/442/351 352/443/352
f 330/409/330 329/440/329 344/441/344 345/444/345
f 338/406/338 337/403/337 352/443/352 353/445/353
f 331/410/331 330/409/330 345/444/345 346/446/346
f 324/411/324 82/35/82 339/447/339
f 308/36/308 338/406/338 353/445/353
f 332/413/332 331/410/331 346/446/346 347/448/347
f 325/414/325 324/411/324 339/447/339 340/425/340
f 333/428/333 332/413/332 347/448/347 348/429/348
f 345/444/345 344/441/344 359/449/359 360/450/360
f 353/445/353 352/443/352 367/451/367 368/452/368
f 346/446/346 345/444/345 360/450/360 361/453/361
f 339/447/339 82/35/82 354/454/354
f 308/36/308 353/445/353 368/452/368
f 347/448/347 346/446/346 361/453/361 362/455/362
f 340/425/340 339/447/339 354/454/354 355/456/355
f 348/429/348 347/448/347 362/455/362 363/457/363
f 341/426/341 340/425/340 355/456/355 356/458/356
f 349/430/349 348/429/348 363/457/363 364/459/364
f 342/431/342 341/426/341 356/458/356 357/460/357
f 350/433/350 349/430/349 364/459/364 365/461/365
f 343/437/343 342/436/342 357/462/357 358/463/358
f 351/439/351 350/433/350 365/461/365 366/464/366
f 344/441/344 343/437/343 358/463/358 359/449/359
f 352/443/352 351/442/351 366/465/366 367/451/367
f 364/459/364 363/457/363 378/466/378 379/467/379
f 357/460/357 356/458/356 371/468/371 372/469/372
f 365/461/365 364/459/364 379/467/379 380/470/380
f 358/463/358 357/462/357 372/471/372 373/472/373
f 366/464/366 365/461/365 380/470/380 381/473/381
f 359/449/359 358/463/358 373/472/373 374/474/374
f 367/451/367 366/465/366 381/475/381 382/476/382
f 360/450/360 359/449/359 374/474/374 375/477/375
f 368/452/368 367/451/367 382/476/382 383/478/383
f 361/453/361 360/450/360 375/477/375 376/479/376
f 354/454/354 82/35/82 369/480/369
f 308/36/308 368/452/368 383/478/383
f 362/455/362 361/453/361 376/479/376 377/481/377
f 355/456/355 354/454/354 369/480/369 370/482/370
f 363/457/363 362/455/362 377/481/377 378/466/378
f 356/458/356 355/456/355 370/482/370 371/468/371
f 383/478/383 382/476/382 397/483/397 398/484/398
f 376/479/376 375/477/375 390/485/390 391/486/391
f 369/480/369 82/35/82 384/487/384
f 308/36/308 383/478/383 398/484/398
f 377/481/377 376/479/376 391/486/391 392/488/392
f 370/482/370 369/480/369 384/487/384 385/489/385
f 378/466/378 377/481/377 392/488/392 393/490/393
f 371/468/371 370/482/370 385/489/385 386/491/386
f 379/467/379 378/466/378 393/490/393 394/492/394
f 372/469/372 371/468/371 386/491/386 387/493/387
f 380/470/380 379/467/379 394/492/394 395/494/395
f 373/472/373 372/471/372 387/495/387 388/496/388
f 381/473/381 380/470/380 395/494/395 396/497/396
f 374/474/374 373/472/373 388/496/388 389/498/389
f 382/476/382 381/475/381 396/499/396 397/483/397
f 375/477/375 374/474/374 389/498/389 390/485/390
f 387/493/387 386/491/386 401/500/401 402/501/402
f 395/494/395 394/492/394 409/502/409 410/503/410
f 388/496/388 387/495/387 402/504/402 403/505/403
f 396/497/396 395/494/395 410/503/410 411/506/411
f 389/498/389 388/496/388 403/505/403 404/507/404
f 397/483/397 396/499/396 411/508/411 412/509/412
f 390/485/390 389/498/389 404/507/404 405/510/405
f 398/484/398 397/483/397 412/509/412 413/511/413
f 391/486/391 390/485/390 405/510/405 406/512/406
f 384/487/384 82/35/82 399/513/399
f 308/36/308 398/484/398 413/511/413
f 392/488/392 391/486/391 406/512/406 407/514/407
f 385/489/385 384/487/384 399/513/399 400/515/400
f 393/490/393 392/488/392 407/514/407 408/516/408
f 386/491/386 385/489/385 400/515/400 401/500/401
f 394/492/394 393/490/393 408/516/408 409/502/409
f 406/512/406 405/510/405 420/517/420 421/518/421
f 399/513/399 82/35/82 414/519/414
f 308/36/308 413/511/413 428/520/428
f 407/514/407 406/512/406 421/518/421 422/521/422
f 400/515/400 399/513/399 414/519/414 415/522/415
f 408/516/408 407/514/407 422/521/422 423/523/423
f 401/500/401 400/515/400 415/522/415 416/524/416
f 409/502/409 408/516/408 423/523/423 424/525/424
f 402/501/402 401/500/401 416/524/416 417/526/417
f 410/503/410 409/502/409 424/525/424 425/527/425
f 403/505/403 402/504/402 417/528/417 418/529/418
f 411/506/411 410/503/410 425/527/425 426/530/426
f 404/507/404 403/505/403 418/529/418 419/531/419
f 412/509/412 411/508/411 426/532/426 427/533/427
f 405/510/405 404/507/404 419/531/419 420/517/420
f 413/511/413 412/509/412 427/533/427 428/520/428
f 425/527/425 424/525/424 439/534/439 440/535/440
f 418/529/418 417/528/417 432/536/432 433/537/433
f 426/532/426 425/538/425 440/539/440 441/540/441
f 419/531/419 418/529/418 433/537/433 434/541/434
f 427/533/427 426/532/426 441/540/441 442/542/442
f 420/517/420 419/531/419 434/541/434 435/543/435
f 428/520/428 427/533/427 442/542/442 443/544/443
f 421/518/421 420/517/420 435/543/435 436/545/436
f 414/519/414 82/35/82 429/546/429
f 308/36/308 428/520/428 443/544/443
f 422/521/422 421/518/421 436/545/436 437/547/437
f 415/522/415 414/519/414 429/546/429 430/548/430
f 423/523/423 422/521/422 437/547/437 438/549/438
f 416/524/416 415/522/415 430/548/430 431/550/431
f 424/525/424 423/523/423 438/549/438 439/534/439
f 417/526/417 416/524/416 431/550/431 432/551/432
f 308/36/308 443/544/443 458/552/458
f 437/547/437 436/545/436 451/553/451 452/554/452
f 430/548/430 429/546/429 444/555/444 445/556/445
f 438/549/438 437/547/437 452/554/452 453/557/453
f 431/550/431 430/548/430 445/556/445 446/558/446
f 439/534/439 438/549/438 453/557/453 454/559/454
f 432/551/432 431/550/431 446/558/446 447/560/447
f 440/535/440 439/534/439 454/559/454 455/561/455
f 433/562/433 432/563/432 447/564/447 448/565/448
f 441/540/441 440/539/440 455/566/455 456/567/456
f 434/568/434 433/562/433 448/565/448 449/569/449
f 442/542/442 441/540/441 456/567/456 457/570/457
f 435/571/435 434/568/434 449/569/449 450/572/450
f 443/544/443 442/542/442 457/570/457 458/552/458
f 436/573/436 435/571/435 450/572/450 451/574/451
f 429/546/429 82/35/82 444/555/444
f 456/567/456 455/566/455 470/575/470 471/576/471
f 449/569/449 448/565/448 463/577/463 464/578/464
f 457/570/457 456/567/456 471/576/471 472/579/472
f 450/572/450 449/569/449 464/578/464 465/580/465
f 458/552/458 457/570/457 472/579/472 473/581/473
f 451/574/451 450/572/450 465/580/465 466/582/466
f 444/555/444 82/35/82 459/583/459
f 308/36/308 458/552/458 473/581/473
f 452/584/452 451/574/451 466/582/466 467/585/467
f 445/556/445 444/555/444 459/583/459 460/586/460
f 453/587/453 452/584/452 467/585/467 468/588/468
f 446/558/446 445/556/445 460/586/460 461/589/461
f 454/590/454 453/587/453 468/588/468 469/591/469
f 447/560/447 446/558/446 461/589/461 462/592/462
f 455/593/455 454/590/454 469/591/469 470/594/470
f 448/565/448 447/564/447 462/595/462 463/577/463
f 460/586/460 459/583/459 474/6/474 475/5/475
f 468/588/468 467/585/467 5/1/5 478/9/478
f 461/589/461 460/586/460 475/5/475 1/11/1
f 469/591/469 468/588/468 478/9/478 6/13/6
f 462/595/462 461/596/461 1/16/1 476/15/476
f 470/594/470 469/591/469 6/13/6 479/19/479
f 463/577/463 462/595/462 476/15/476 2/21/2
f 471/576/471 470/575/470 479/24/479 480/23/480
f 464/578/464 463/577/463 2/21/2 477/27/477
f 472/579/472 471/576/471 480/23/480 481/29/481
f 465/580/465 464/578/464 477/27/477 3/31/3
f 473/581/473 472/579/472 481/29/481 482/33/482
f 466/582/466 465/580/465 3/31/3 4/2/4
f 459/583/459 82/35/82 474/6/474
f 308/36/308 473/581/473 482/33/482
f 467/585/467 466/582/466 4/2/4 5/1/5
